<?xml version="1.0" encoding="UTF-8" standalone="no"?>
<!-- Created with Inkscape (http://www.inkscape.org/) -->

<svg
   width="91.57mm"
   height="32.556999mm"
   viewBox="0 0 91.57 32.556999"
   version="1.1"
   id="svg1"
   inkscape:version="1.3 (0e150ed6c4, 2023-07-21)"
   sodipodi:docname="logo-ttcn3-inverted.svg"
   xmlns:inkscape="http://www.inkscape.org/namespaces/inkscape"
   xmlns:sodipodi="http://sodipodi.sourceforge.net/DTD/sodipodi-0.dtd"
   xmlns="http://www.w3.org/2000/svg"
   xmlns:svg="http://www.w3.org/2000/svg">
  <sodipodi:namedview
     id="namedview1"
     pagecolor="#222222"
     bordercolor="#000000"
     borderopacity="0.25"
     inkscape:showpageshadow="2"
     inkscape:pageopacity="0.0"
     inkscape:pagecheckerboard="0"
     inkscape:deskcolor="#d1d1d1"
     inkscape:document-units="mm"
     inkscape:zoom="1.6801487"
     inkscape:cx="343.71957"
     inkscape:cy="252.35861"
     inkscape:window-width="3840"
     inkscape:window-height="2083"
     inkscape:window-x="0"
     inkscape:window-y="0"
     inkscape:window-maximized="1"
     inkscape:current-layer="layer1" />
  <defs
     id="defs1">
    <clipPath
       clipPathUnits="userSpaceOnUse"
       id="clipPath3">
      <path
         d="M 9.661,9.661 H 627.614 V 874.228 H 9.661 Z"
         transform="translate(-198.0753,-177.39021)"
         id="path3" />
    </clipPath>
    <clipPath
       clipPathUnits="userSpaceOnUse"
       id="clipPath5">
      <path
         d="M 9.661,9.661 H 627.614 V 874.228 H 9.661 Z"
         transform="translate(-278.32641,-177.7449)"
         id="path5" />
    </clipPath>
    <clipPath
       clipPathUnits="userSpaceOnUse"
       id="clipPath7">
      <path
         d="M 9.661,9.661 H 627.614 V 874.228 H 9.661 Z"
         transform="translate(-326.97531,-177.39021)"
         id="path7" />
    </clipPath>
    <clipPath
       clipPathUnits="userSpaceOnUse"
       id="clipPath9">
      <path
         d="M 9.661,9.661 H 627.614 V 874.228 H 9.661 Z"
         transform="translate(-388.05011,-178.1002)"
         id="path9" />
    </clipPath>
    <clipPath
       clipPathUnits="userSpaceOnUse"
       id="clipPath11">
      <path
         d="M 9.661,9.661 H 627.614 V 874.228 H 9.661 Z"
         transform="translate(-395.33031,-197.5416)"
         id="path11" />
    </clipPath>
    <clipPath
       clipPathUnits="userSpaceOnUse"
       id="clipPath13">
      <path
         d="M 9.661,9.661 H 627.614 V 874.228 H 9.661 Z"
         transform="translate(-383.43231,-157.12521)"
         id="path13" />
    </clipPath>
    <clipPath
       clipPathUnits="userSpaceOnUse"
       id="clipPath15">
      <path
         d="M 9.661,9.661 H 627.614 V 874.228 H 9.661 Z"
         transform="translate(-238.02351,-177.0349)"
         id="path15" />
    </clipPath>
  </defs>
  <g
     inkscape:label="Layer 1"
     inkscape:groupmode="layer"
     id="layer1"
     transform="translate(-14.022916,-81.756245)">
    <path
       id="path2"
       d="m 0,0 h 28.407 c 0,0 4.084,-0.533 1.066,-6.037 0,0 -0.533,-1.509 -4.617,-2.131 0,0 -4.616,-1.597 -5.326,-5.326 L 14.914,-35.51 c 0,0 -0.711,-6.036 -5.326,-6.036 H 0 c 0,0 -2.663,0.533 -1.776,5.681 l 4.972,23.792 c 0,0 1.065,2.663 -2.841,3.551 0,0 -3.906,1.065 -3.906,3.55 0,0 -0.178,4.794 3.551,4.972"
       style="fill:#dfdfdf;fill-opacity:1;fill-rule:nonzero;stroke:none"
       transform="matrix(0.35277776,0,0,-0.35277776,17.276089,90.918758)"
       clip-path="url(#clipPath3)" />
    <path
       id="path4"
       d="m 0,0 h 35.154 c 0,0 3.552,-0.044 2.486,-6.036 l -1.065,-5.682 c 0,0 -0.71,-5.327 -4.971,-5.327 H 21.306 c 0,0 -2.974,0.489 -2.131,4.262 0,0 1.065,3.551 -3.196,3.551 0,0 -4.261,0 -5.326,-4.617 L 7.812,-28.763 c 0,0 -0.71,-4.261 2.841,-4.615 0,0 3.651,-0.223 4.972,3.905 0,0 0.909,4.228 4.261,4.261 h 10.297 c 0,0 3.363,0 2.131,-4.97 l -2.131,-7.813 c 0,0 -0.71,-4.261 -5.681,-3.905 H -8.167 c 0,0 -3.462,0.31 -2.131,6.745 l 6.392,30.184 c 0,0 1.065,5.06 3.906,4.971"
       style="fill:#dfdfdf;fill-opacity:1;fill-rule:nonzero;stroke:none"
       transform="matrix(0.35277776,0,0,-0.35277776,45.586894,90.793629)"
       clip-path="url(#clipPath5)" />
    <path
       id="path6"
       d="m 0,0 h 34.443 c 0,0 4.084,0.444 2.486,-6.037 l -6.036,-29.117 c 0,0 -0.532,-6.125 -6.038,-6.392 h -8.522 c 0,0 -3.816,0.088 -2.484,6.036 l 4.97,23.437 c 0,0 0.976,3.728 -3.551,3.905 0,0 -3.773,0.089 -4.971,-4.971 L 5.68,-35.154 c 0,0 -0.976,-6.304 -5.68,-6.392 h -8.169 c 0,0 -4.171,0.444 -2.84,6.392 l 6.392,30.182 c 0,0 0.932,5.016 4.617,4.972"
       style="fill:#dfdfdf;fill-opacity:1;fill-rule:nonzero;stroke:none"
       transform="matrix(0.35277776,0,0,-0.35277776,62.749145,90.918758)"
       clip-path="url(#clipPath7)" />
    <path
       id="path8"
       d="m 0,0 h 26.988 c 0,0 3.552,0 2.13,-4.616 0,0 -0.998,-3.707 2.841,-3.817 l 3.285,-0.089 c 0,0 2.663,0 1.864,-2.664 l -3.995,-19.175 c 0,0 -0.266,-2.996 -4.261,-2.663 0,0 -3.462,0.533 -4.794,-2.663 0,0 -1.797,-6.125 -5.859,-6.125 H -7.368 c 0,0 -3.462,-0.089 -2.396,4.793 0,0 1.065,3.729 5.06,3.995 h 18.642 c 0,0 3.196,-0.266 3.462,4.528 0,0 0.799,3.462 -2.929,3.462 H 3.818 c 0,0 -2.663,0.178 -2.131,4.261 0,0 0.267,3.995 4.262,3.995 h 10.652 c 0,0 3.463,-0.267 3.995,4.261 0,0 0.799,4.261 -3.196,4.527 H -0.177 c 0,0 -2.574,0.089 -2.663,3.729 0,0 0.133,4.128 2.84,4.261"
       style="fill:#dfdfdf;fill-opacity:1;fill-rule:nonzero;stroke:none"
       transform="matrix(0.35277776,0,0,-0.35277776,84.294975,90.668288)"
       clip-path="url(#clipPath9)" />
    <path
       id="path10"
       d="m 0,0 c 0,0 41.013,-0.533 41.013,-41.013 0,0 2.131,-35.954 -41.279,-39.416 0,0 29.828,-4.794 43.144,20.24 0,0 12.517,22.638 -3.995,46.074 0,0 -10.919,15.979 -38.883,14.115"
       style="fill:#00adef;fill-opacity:1;fill-rule:nonzero;stroke:none"
       transform="matrix(0.35277776,0,0,-0.35277776,86.86327,83.809793)"
       clip-path="url(#clipPath11)" />
    <path
       id="path12"
       d="m 0,0 c 0,-1.998 -1.539,-3.618 -3.436,-3.618 h -9.405 c -1.898,0 -3.437,1.62 -3.437,3.618 0,1.997 1.539,3.617 3.437,3.617 h 9.405 C -1.539,3.617 0,1.997 0,0"
       style="fill:#dfdfdf;fill-opacity:1;fill-rule:nonzero;stroke:none"
       transform="matrix(0.35277776,0,0,-0.35277776,82.66592,98.0678)"
       clip-path="url(#clipPath13)" />
    <path
       id="path14"
       d="m 0,0 h 28.407 c 0,0 4.084,-0.533 1.066,-6.037 0,0 -0.533,-1.509 -4.617,-2.131 0,0 -4.616,-1.597 -5.326,-5.326 L 14.914,-35.51 c 0,0 -0.711,-6.036 -5.326,-6.036 H 0 c 0,0 -2.663,0.533 -1.776,5.681 l 4.972,23.792 c 0,0 1.065,2.663 -2.841,3.551 0,0 -3.906,1.065 -3.906,3.55 0,0 -0.178,4.794 3.551,4.972"
       style="fill:#dfdfdf;fill-opacity:1;fill-rule:nonzero;stroke:none"
       transform="matrix(0.35277776,0,0,-0.35277776,31.368927,91.044102)"
       clip-path="url(#clipPath15)" />
  </g>
</svg>
