<?xml version="1.0" standalone="no"?>
<!DOCTYPE svg PUBLIC "-//W3C//DTD SVG 20010904//EN"
 "http://www.w3.org/TR/2001/REC-SVG-20010904/DTD/svg10.dtd">
<svg version="1.0" xmlns="http://www.w3.org/2000/svg"
 width="700.000000pt" height="700.000000pt" viewBox="0 0 700.000000 700.000000"
 preserveAspectRatio="xMidYMid meet">
<metadata>
Created by potrace 1.14, written by Peter Selinger 2001-2017
</metadata>
<g transform="translate(0.000000,700.000000) scale(0.100000,-0.100000)"
fill="#000000" stroke="none">
<path d="M2850 6374 c257 -31 528 -90 773 -170 1061 -347 1718 -1078 1896
-2114 42 -243 46 -299 46 -635 0 -355 -7 -426 -69 -688 -177 -749 -626 -1339
-1301 -1710 -373 -205 -873 -353 -1385 -410 -63 -7 -110 -16 -103 -20 6 -4
103 -10 215 -14 712 -21 1386 155 1898 495 476 317 836 781 1019 1315 134 391
190 757 178 1171 -17 624 -205 1188 -581 1741 -80 118 -278 316 -431 431 -556
416 -1264 628 -2085 623 l-185 -1 115 -14z"/>
<path d="M2039 4969 c-73 -43 -124 -161 -123 -289 0 -118 46 -203 129 -241 38
-17 80 -19 696 -19 565 0 663 -2 700 -15 88 -32 139 -108 147 -220 11 -169
-59 -314 -178 -369 -43 -20 -65 -21 -510 -26 l-465 -5 -47 -27 c-104 -62 -151
-159 -152 -313 -1 -116 17 -163 81 -212 l36 -28 446 -5 c438 -5 447 -5 481
-27 20 -12 46 -41 59 -64 22 -39 23 -49 18 -143 -7 -121 -33 -200 -85 -258
-70 -78 -11 -72 -837 -78 l-740 -5 -67 -33 c-81 -39 -149 -111 -192 -202 -27
-57 -30 -75 -30 -155 0 -108 21 -160 86 -202 l42 -28 975 0 976 0 48 22 c107
49 207 177 283 360 47 116 70 148 134 191 61 41 107 52 227 52 156 0 241 37
282 123 28 60 324 1492 317 1532 -7 33 -33 63 -75 85 -15 8 -91 15 -200 19
-161 6 -180 9 -219 31 -82 46 -108 135 -78 268 33 144 10 235 -69 279 l-40 23
-1010 0 c-1006 0 -1010 -1 -1046 -21z"/>
</g>
</svg>
